<?xml version="1.0" encoding="UTF-8" standalone="no"?>
<!DOCTYPE svg PUBLIC "-//W3C//DTD SVG 1.1//EN" "http://www.w3.org/Graphics/SVG/1.1/DTD/svg11.dtd">
<svg width="100%" height="100%" viewBox="0 0 1920 1080" version="1.1" xmlns="http://www.w3.org/2000/svg" xmlns:xlink="http://www.w3.org/1999/xlink" xml:space="preserve" xmlns:serif="http://www.serif.com/" style="fill-rule:evenodd;clip-rule:evenodd;stroke-linejoin:round;stroke-miterlimit:2;">
    <g id="layer_1" transform="matrix(0.918031,0,0,0.918031,141.942,70.1558)">
        <g transform="matrix(0.622243,0,0,0.61372,1633.91,458.175)">
            <g transform="matrix(1.02223,0,0,1.03643,-1214.62,43.9769)">
                <path d="M827.304,472.08L827.304,537.659C827.304,555.756 812.612,570.448 794.515,570.448L728.936,570.448C710.839,570.448 696.147,555.756 696.147,537.659L696.147,472.08C696.147,453.983 710.839,439.29 728.936,439.29L794.515,439.29C812.612,439.29 827.304,453.983 827.304,472.08Z" style="fill:rgb(44,44,49);fill-opacity:0.6;"/>
            </g>
            <g transform="matrix(2.28624,0,0,2.31799,-463.398,539.421)">
                <path d="M12,0C8.21,0 4.831,1.757 2.632,4.501L6.585,11.349C6.912,8.621 9.253,6.545 12,6.545L22.691,6.545C20.644,2.534 16.504,-0.001 12,0ZM1.931,5.47C0.667,7.413 -0.004,9.682 -0,12C0,18.012 4.42,22.991 10.189,23.864L14.142,17.017C11.616,18.097 8.649,17.107 7.277,14.727L1.931,5.47ZM15.273,7.636C17.473,9.282 18.1,12.348 16.723,14.726L16.725,14.727L16.723,14.727L11.379,23.984C11.585,23.994 11.792,24 12,24C18.627,24 24,18.627 24,12C24,10.46 23.71,8.989 23.182,7.636L15.273,7.636ZM12,16.364C9.606,16.364 7.636,14.394 7.636,12C7.636,9.606 9.606,7.636 12,7.636C14.394,7.636 16.364,9.606 16.364,12C16.364,14.394 14.394,16.364 12,16.364Z" style="fill:rgb(172,170,171);fill-rule:nonzero;"/>
            </g>
        </g>
        <g transform="matrix(0.890142,0,0,0.877949,1004.56,-318.208)">
            <g transform="matrix(1.02223,0,0,1.03643,-1214.62,43.9769)">
                <path d="M827.304,472.08L827.304,537.659C827.304,555.756 812.612,570.448 794.515,570.448L728.936,570.448C710.839,570.448 696.147,555.756 696.147,537.659L696.147,472.08C696.147,453.983 710.839,439.29 728.936,439.29L794.515,439.29C812.612,439.29 827.304,453.983 827.304,472.08Z" style="fill:rgb(44,44,49);fill-opacity:0.6;"/>
            </g>
            <g transform="matrix(2.28624,0,0,2.31799,-463.398,539.421)">
                <path d="M23.546,10.93L13.067,0.452C12.463,-0.151 11.485,-0.151 10.879,0.452L8.708,2.627L11.468,5.387C12.113,5.172 12.847,5.317 13.357,5.828C13.873,6.343 14.015,7.086 13.795,7.728L16.453,10.388C17.098,10.165 17.84,10.31 18.353,10.823C19.074,11.543 19.074,12.707 18.353,13.427C17.634,14.146 16.472,14.146 15.753,13.427C15.214,12.886 15.079,12.09 15.349,11.431L12.86,8.955L12.86,15.48C13.036,15.566 13.202,15.683 13.348,15.828C14.061,16.549 14.061,17.711 13.348,18.428C12.629,19.149 11.459,19.149 10.739,18.428C10.02,17.709 10.02,16.549 10.739,15.83C10.921,15.65 11.126,15.514 11.344,15.424L11.344,8.835C11.127,8.744 10.92,8.613 10.744,8.434C10.199,7.889 10.068,7.092 10.348,6.425L7.636,3.7L0.45,10.881C-0.15,11.486 -0.15,12.465 0.45,13.07L10.93,23.547C11.534,24.151 12.512,24.151 13.116,23.547L23.546,13.117C24.151,12.514 24.151,11.535 23.546,10.93" style="fill:rgb(172,170,171);fill-rule:nonzero;"/>
            </g>
        </g>
        <g transform="matrix(0.789206,0,0,0.778396,1837.71,-210.242)">
            <g transform="matrix(1.02223,0,0,1.03643,-1214.62,43.9769)">
                <path d="M827.304,472.08L827.304,537.659C827.304,555.756 812.612,570.448 794.515,570.448L728.936,570.448C710.839,570.448 696.147,555.756 696.147,537.659L696.147,472.08C696.147,453.983 710.839,439.29 728.936,439.29L794.515,439.29C812.612,439.29 827.304,453.983 827.304,472.08Z" style="fill:rgb(44,44,49);fill-opacity:0.6;"/>
            </g>
            <g transform="matrix(2.28624,0,0,2.31799,-463.398,539.421)">
                <path d="M12.032,0C11.15,0 10.977,0.136 10.977,0.136C10.804,0.192 10.622,0.391 10.567,0.566L9.683,3.381C10.156,3.554 11.005,3.807 11.917,3.807C13.015,3.807 13.934,3.458 14.293,3.3L13.435,0.566C13.38,0.39 13.198,0.195 13.028,0.129C13.028,0.129 12.914,-0 12.032,-0ZM15.596,7.455C15.236,7.795 14.269,8.392 11.917,8.392C9.624,8.392 8.728,7.825 8.395,7.481L7.007,11.904C7.234,12.265 8.261,13.463 11.891,13.463C15.648,13.463 16.745,12.116 16.956,11.789L15.596,7.455ZM7.007,11.904L6.004,15.096L4.343,15.096C4.094,15.096 3.833,15.289 3.76,15.527L1.426,23.159C1.411,23.209 1.405,23.261 1.409,23.313C1.409,23.318 1.407,23.323 1.407,23.329C1.407,23.413 1.431,23.555 1.431,23.555C1.463,23.8 1.692,24 1.94,24L22.06,24C22.308,24 22.536,23.801 22.569,23.555C22.569,23.555 22.593,23.413 22.593,23.329C22.593,23.325 22.592,23.322 22.59,23.319C22.592,23.308 22.592,23.298 22.593,23.287C22.593,23.244 22.587,23.201 22.574,23.159L20.24,15.527C20.167,15.289 19.906,15.096 19.657,15.096L17.994,15.096L18.194,15.735C17.953,16.22 16.706,18.115 11.891,18.115C7.291,18.115 6.063,16.385 5.781,15.808L7.007,11.904Z" style="fill:rgb(172,170,171);fill-rule:nonzero;"/>
            </g>
        </g>
        <g transform="matrix(0.783088,0,0,0.772362,733.126,314.322)">
            <g transform="matrix(1.02223,0,0,1.03643,-1214.62,43.9769)">
                <path d="M827.304,472.08L827.304,537.659C827.304,555.756 812.612,570.448 794.515,570.448L728.936,570.448C710.839,570.448 696.147,555.756 696.147,537.659L696.147,472.08C696.147,453.983 710.839,439.29 728.936,439.29L794.515,439.29C812.612,439.29 827.304,453.983 827.304,472.08Z" style="fill:rgb(44,44,49);fill-opacity:0.6;"/>
            </g>
            <g transform="matrix(2.28624,0,0,2.31799,-463.398,539.421)">
                <path d="M20.317,4.37C18.761,3.656 17.119,3.146 15.432,2.855C15.401,2.849 15.369,2.864 15.353,2.892C15.142,3.267 14.909,3.757 14.745,4.141C12.9,3.865 11.065,3.865 9.258,4.141C9.095,3.748 8.852,3.267 8.641,2.892C8.625,2.864 8.593,2.85 8.562,2.855C6.875,3.146 5.233,3.655 3.677,4.37C3.664,4.375 3.652,4.385 3.645,4.397C0.533,9.046 -0.319,13.58 0.099,18.058C0.102,18.08 0.113,18.1 0.13,18.114C2.183,19.622 4.172,20.537 6.123,21.143C6.154,21.153 6.188,21.142 6.208,21.116C6.669,20.485 7.081,19.821 7.433,19.122C7.439,19.111 7.442,19.099 7.442,19.087C7.442,19.055 7.422,19.027 7.392,19.016C6.739,18.768 6.118,18.466 5.52,18.124C5.496,18.11 5.482,18.084 5.482,18.057C5.482,18.033 5.493,18.01 5.512,17.996C5.638,17.902 5.764,17.804 5.884,17.704C5.906,17.686 5.936,17.682 5.962,17.694C9.889,19.487 14.142,19.487 18.023,17.694C18.049,17.682 18.079,17.685 18.101,17.703C18.222,17.802 18.347,17.902 18.474,17.996C18.494,18.01 18.505,18.033 18.505,18.057C18.505,18.084 18.491,18.109 18.468,18.123C17.869,18.473 17.243,18.771 16.595,19.015C16.565,19.026 16.545,19.055 16.545,19.086C16.545,19.099 16.548,19.111 16.554,19.122C16.914,19.82 17.326,20.484 17.779,21.115C17.798,21.141 17.832,21.153 17.863,21.143C19.824,20.537 21.813,19.621 23.865,18.114C23.883,18.101 23.895,18.081 23.897,18.059C24.397,12.882 23.059,8.385 20.348,4.398C20.342,4.385 20.33,4.375 20.317,4.37L20.317,4.37ZM8.02,15.331C6.837,15.331 5.863,14.246 5.863,12.912C5.863,11.579 6.819,10.493 8.02,10.493C9.231,10.493 10.196,11.589 10.177,12.912C10.177,14.246 9.221,15.331 8.02,15.331ZM15.995,15.331C14.812,15.331 13.838,14.246 13.838,12.912C13.838,11.579 14.793,10.493 15.995,10.493C17.206,10.493 18.171,11.589 18.152,12.912C18.152,14.246 17.206,15.331 15.995,15.331Z" style="fill:rgb(172,170,171);fill-rule:nonzero;"/>
            </g>
        </g>
    </g>
</svg>
