<?xml version="1.0" encoding="UTF-8" standalone="no"?>
<!DOCTYPE svg PUBLIC "-//W3C//DTD SVG 1.1//EN" "http://www.w3.org/Graphics/SVG/1.1/DTD/svg11.dtd">
<svg width="100%" height="100%" viewBox="0 0 1920 1080" version="1.1" xmlns="http://www.w3.org/2000/svg" xmlns:xlink="http://www.w3.org/1999/xlink" xml:space="preserve" xmlns:serif="http://www.serif.com/" style="fill-rule:evenodd;clip-rule:evenodd;stroke-linejoin:round;stroke-miterlimit:2;">
    <g id="layer_2" transform="matrix(0.918031,0,0,0.918031,141.942,70.1558)">
        <g transform="matrix(0.762189,0,0,0.751749,313.886,-148.744)">
            <g transform="matrix(1.02223,0,0,1.03643,-1214.62,43.9769)">
                <path d="M827.304,472.08L827.304,537.659C827.304,555.756 812.612,570.448 794.515,570.448L728.936,570.448C710.839,570.448 696.147,555.756 696.147,537.659L696.147,472.08C696.147,453.983 710.839,439.29 728.936,439.29L794.515,439.29C812.612,439.29 827.304,453.983 827.304,472.08Z" style="fill:rgb(44,44,49);fill-opacity:0.6;"/>
            </g>
            <g transform="matrix(2.28624,0,0,2.31799,-463.398,539.421)">
                <path d="M14.25,0.18L15.15,0.38L15.88,0.64L16.47,0.94L16.92,1.26L17.26,1.6L17.51,1.94L17.67,2.27L17.77,2.57L17.81,2.83L17.83,3.03L17.82,3.16L17.82,8.5L17.77,9.13L17.64,9.68L17.43,10.14L17.17,10.52L16.87,10.83L16.54,11.08L16.19,11.27L15.84,11.41L15.51,11.51L15.21,11.58L14.95,11.62L14.74,11.64L8.77,11.64L8.08,11.69L7.49,11.83L6.99,12.05L6.58,12.32L6.25,12.64L5.98,12.99L5.78,13.35L5.63,13.72L5.53,14.07L5.46,14.39L5.42,14.66L5.4,14.87L5.4,17.93L3.17,17.93L2.96,17.9L2.68,17.83L2.36,17.71L2.01,17.53L1.65,17.27L1.29,16.91L0.94,16.45L0.62,15.86L0.34,15.13L0.13,14.25L-0.01,13.2L-0.06,11.97L0,10.75L0.16,9.71L0.4,8.84L0.72,8.13L1.08,7.56L1.48,7.12L1.9,6.79L2.32,6.55L2.72,6.39L3.08,6.29L3.4,6.24L3.64,6.23L3.8,6.23L3.86,6.24L12.02,6.24L12.02,5.41L6.18,5.41L6.17,2.66L6.15,2.29L6.2,1.95L6.31,1.64L6.48,1.36L6.73,1.1L7.04,0.87L7.42,0.67L7.86,0.49L8.37,0.34L8.95,0.22L9.59,0.12L10.3,0.06L11.07,0.02L11.91,-0L13.18,0.05L14.25,0.18ZM7.95,2.16L7.72,2.49L7.64,2.9L7.72,3.31L7.95,3.65L8.28,3.87L8.69,3.96L9.1,3.87L9.43,3.65L9.66,3.31L9.74,2.9L9.66,2.49L9.43,2.16L9.1,1.94L8.69,1.85L8.28,1.94L7.95,2.16ZM21.04,6.11L21.32,6.17L21.64,6.29L21.99,6.47L22.35,6.74L22.71,7.09L23.06,7.56L23.38,8.15L23.66,8.88L23.87,9.76L24.01,10.8L24.06,12.03L24,13.26L23.84,14.3L23.6,15.16L23.28,15.87L22.92,16.44L22.52,16.89L22.1,17.22L21.68,17.46L21.28,17.62L20.92,17.71L20.6,17.76L20.36,17.78L20.2,17.77L11.98,17.77L11.98,18.59L17.82,18.59L17.83,21.35L17.85,21.71L17.8,22.05L17.69,22.36L17.52,22.65L17.27,22.9L16.96,23.14L16.58,23.34L16.14,23.51L15.63,23.66L15.05,23.79L14.41,23.88L13.7,23.95L12.93,23.99L12.09,24L10.82,23.96L9.75,23.82L8.85,23.62L8.12,23.37L7.53,23.07L7.08,22.74L6.74,22.4L6.49,22.06L6.33,21.73L6.23,21.43L6.19,21.18L6.17,20.98L6.18,20.85L6.18,15.51L6.23,14.87L6.36,14.33L6.57,13.87L6.83,13.49L7.13,13.17L7.46,12.93L7.81,12.73L8.16,12.59L8.49,12.49L8.79,12.43L9.05,12.39L9.26,12.37L9.39,12.36L15.23,12.36L15.92,12.31L16.51,12.17L17.01,11.96L17.42,11.68L17.75,11.36L18.02,11.01L18.22,10.65L18.37,10.29L18.47,9.94L18.54,9.62L18.58,9.34L18.6,9.13L18.6,6.07L20.69,6.07L20.83,6.08L21.04,6.11ZM14.57,20.36L14.34,20.69L14.26,21.1L14.34,21.51L14.57,21.84L14.9,22.07L15.31,22.15L15.72,22.07L16.05,21.84L16.28,21.51L16.36,21.1L16.28,20.69L16.05,20.36L15.72,20.13L15.31,20.05L14.9,20.13L14.57,20.36Z" style="fill:rgb(172,170,171);fill-rule:nonzero;"/>
            </g>
        </g>
        <g transform="matrix(0.60956,0,0,0.601211,995.115,482.089)">
            <g transform="matrix(1.02223,0,0,1.03643,-1214.62,42.3136)">
                <path d="M827.304,472.08L827.304,537.659C827.304,555.756 812.612,570.448 794.515,570.448L728.936,570.448C710.839,570.448 696.147,555.756 696.147,537.659L696.147,472.08C696.147,453.983 710.839,439.29 728.936,439.29L794.515,439.29C812.612,439.29 827.304,453.983 827.304,472.08Z" style="fill:rgb(44,44,49);fill-opacity:0.6;"/>
            </g>
            <g transform="matrix(2.28624,0,0,2.31799,-463.398,539.421)">
                <path d="M0,0L0,24L24,24L24,0L0,0ZM3.723,3.111L8.723,3.111L8.723,4.945L7.333,4.945L7.333,11.222L8.723,11.222L8.723,13.056L3.723,13.056L3.723,11.222L5.167,11.222L5.167,4.945L3.723,4.945L3.723,3.111ZM14.778,3.111L17,3.111L17,9.611C17,10.223 16.945,10.722 16.778,11.167C16.611,11.611 16.388,11.944 16.055,12.277C15.778,12.556 15.389,12.834 14.945,12.945C14.485,13.128 13.995,13.222 13.5,13.223C12.722,13.223 12.056,13.056 11.556,12.778C11.072,12.503 10.639,12.145 10.277,11.722L11.667,10.167C11.944,10.501 12.222,10.722 12.5,10.889C12.777,11.056 13.111,11.167 13.445,11.167C13.834,11.167 14.166,11.056 14.445,10.778C14.666,10.5 14.778,10.111 14.778,9.5L14.778,3.111ZM2.222,19.5L11.222,19.5L11.222,21L2.222,21L2.222,19.5Z" style="fill:rgb(172,170,171);fill-rule:nonzero;"/>
            </g>
        </g>
        <g transform="matrix(0.519675,0,0,0.512557,1728.35,-172.056)">
            <g transform="matrix(1.02223,0,0,1.03643,-1214.62,43.9769)">
                <path d="M827.304,472.08L827.304,537.659C827.304,555.756 812.612,570.448 794.515,570.448L728.936,570.448C710.839,570.448 696.147,555.756 696.147,537.659L696.147,472.08C696.147,453.983 710.839,439.29 728.936,439.29L794.515,439.29C812.612,439.29 827.304,453.983 827.304,472.08Z" style="fill:rgb(44,44,49);fill-opacity:0.6;"/>
            </g>
            <g transform="matrix(2.28624,0,0,2.31799,-463.398,539.42)">
                <path d="M4.459,4.208C5.205,4.814 5.485,4.768 6.887,4.674L20.102,3.881C20.382,3.881 20.149,3.601 20.056,3.555L17.86,1.968C17.44,1.642 16.879,1.268 15.805,1.361L3.01,2.295C2.544,2.341 2.45,2.575 2.636,2.761L4.459,4.208ZM5.252,7.287L5.252,21.192C5.252,21.939 5.625,22.219 6.466,22.172L20.989,21.332C21.83,21.286 21.924,20.772 21.924,20.165L21.924,6.354C21.924,5.748 21.691,5.421 21.176,5.467L5.999,6.354C5.439,6.401 5.252,6.681 5.252,7.287ZM19.589,8.033C19.682,8.453 19.589,8.873 19.169,8.921L18.469,9.061L18.469,19.325C17.861,19.652 17.301,19.839 16.834,19.839C16.086,19.839 15.899,19.605 15.339,18.906L10.762,11.72L10.762,18.672L12.21,19C12.21,19 12.21,19.84 11.042,19.84L7.82,20.026C7.727,19.84 7.82,19.373 8.147,19.28L8.987,19.047L8.987,9.854L7.822,9.76C7.728,9.34 7.962,8.734 8.615,8.687L12.071,8.454L16.835,15.733L16.835,9.293L15.62,9.154C15.527,8.64 15.9,8.267 16.367,8.221L19.589,8.033ZM1.936,1.035L15.246,0.055C16.88,-0.085 17.301,0.008 18.328,0.755L22.577,3.741C23.277,4.254 23.511,4.394 23.511,4.954L23.511,21.332C23.511,22.358 23.138,22.966 21.831,23.058L6.373,23.992C5.393,24.039 4.925,23.899 4.411,23.245L1.282,19.185C0.722,18.438 0.489,17.879 0.489,17.225L0.489,2.667C0.489,1.828 0.863,1.127 1.936,1.035Z" style="fill:rgb(172,170,171);fill-rule:nonzero;"/>
            </g>
        </g>
        <g transform="matrix(0.732712,0,0,0.722676,1970.57,190.778)">
            <g transform="matrix(1.02223,0,0,1.03643,-1214.62,43.9769)">
                <path d="M827.304,472.08L827.304,537.659C827.304,555.756 812.612,570.448 794.515,570.448L728.936,570.448C710.839,570.448 696.147,555.756 696.147,537.659L696.147,472.08C696.147,453.983 710.839,439.29 728.936,439.29L794.515,439.29C812.612,439.29 827.304,453.983 827.304,472.08Z" style="fill:rgb(44,44,49);fill-opacity:0.6;"/>
            </g>
            <g transform="matrix(2.28624,0,0,2.31799,-463.398,539.421)">
                <path d="M5.042,15.165C5.039,16.547 3.904,17.684 2.522,17.688C1.139,17.685 0.003,16.548 0,15.165C0.004,13.783 1.14,12.648 2.522,12.645L5.042,12.645L5.042,15.165ZM6.313,15.165C6.317,13.784 7.453,12.648 8.834,12.645C10.215,12.648 11.351,13.784 11.355,15.165L11.355,21.478C11.352,22.86 10.216,23.996 8.834,24C7.452,23.996 6.316,22.86 6.313,21.478L6.313,15.165ZM8.834,5.042C7.453,5.038 6.317,3.903 6.313,2.522C6.316,1.14 7.452,0.004 8.834,0C10.216,0.004 11.352,1.14 11.355,2.522L11.355,5.042L8.834,5.042ZM8.834,6.313C10.216,6.317 11.351,7.452 11.355,8.834C11.351,10.216 10.216,11.351 8.834,11.355L2.522,11.355C1.14,11.352 0.004,10.216 0,8.834C0.004,7.452 1.14,6.316 2.522,6.313L8.834,6.313ZM18.956,8.834C18.96,7.452 20.096,6.316 21.478,6.313C22.86,6.316 23.996,7.452 24,8.834C23.996,10.216 22.86,11.352 21.478,11.355L18.956,11.355L18.956,8.834ZM17.688,8.834C17.684,10.216 16.547,11.352 15.165,11.355C13.784,11.351 12.648,10.215 12.645,8.834L12.645,2.522C12.648,1.14 13.783,0.004 15.165,0C16.548,0.003 17.685,1.139 17.688,2.522L17.688,8.834ZM15.165,18.956C16.548,18.959 17.685,20.095 17.688,21.478C17.685,22.861 16.548,23.997 15.165,24C13.783,23.996 12.648,22.86 12.645,21.478L12.645,18.956L15.165,18.956ZM15.165,17.688C13.783,17.684 12.647,16.547 12.645,15.165C12.648,13.784 13.784,12.648 15.165,12.645L21.478,12.645C22.86,12.648 23.996,13.783 24,15.165C23.997,16.548 22.861,17.685 21.478,17.688L15.165,17.688Z" style="fill:rgb(172,170,171);fill-rule:nonzero;"/>
            </g>
        </g>
    </g>
</svg>
