<?xml version="1.0" encoding="UTF-8" standalone="no"?>
<!DOCTYPE svg PUBLIC "-//W3C//DTD SVG 1.1//EN" "http://www.w3.org/Graphics/SVG/1.1/DTD/svg11.dtd">
<svg width="100%" height="100%" viewBox="0 0 1920 1080" version="1.1" xmlns="http://www.w3.org/2000/svg" xmlns:xlink="http://www.w3.org/1999/xlink" xml:space="preserve" xmlns:serif="http://www.serif.com/" style="fill-rule:evenodd;clip-rule:evenodd;stroke-linecap:round;stroke-linejoin:round;stroke-miterlimit:1.5;">
    <g id="layer_3" transform="matrix(0.918031,0,0,0.918031,141.942,70.1558)">
        <g transform="matrix(0.942896,0,0,0.942896,-650.551,470.41)">
            <path d="M827.304,472.08L827.304,537.659C827.304,555.756 812.612,570.448 794.515,570.448L728.936,570.448C710.839,570.448 696.147,555.756 696.147,537.659L696.147,472.08C696.147,453.983 710.839,439.29 728.936,439.29L794.515,439.29C812.612,439.29 827.304,453.983 827.304,472.08Z" style="fill:rgb(172,170,171);fill-opacity:0.15;"/>
        </g>
        <g transform="matrix(0.525324,0,0,0.525324,-204.504,-148.162)">
            <path d="M827.304,472.08L827.304,537.659C827.304,555.756 812.612,570.448 794.515,570.448L728.936,570.448C710.839,570.448 696.147,555.756 696.147,537.659L696.147,472.08C696.147,453.983 710.839,439.29 728.936,439.29L794.515,439.29C812.612,439.29 827.304,453.983 827.304,472.08Z" style="fill:none;stroke:rgb(44,44,49);stroke-opacity:0.2;stroke-width:4.15px;"/>
        </g>
        <g transform="matrix(0.617559,0,0,0.6091,1211.04,-273.941)">
            <g transform="matrix(1.02223,0,0,1.03643,-1214.62,43.9769)">
                <path d="M827.304,472.08L827.304,537.659C827.304,555.756 812.612,570.448 794.515,570.448L728.936,570.448C710.839,570.448 696.147,555.756 696.147,537.659L696.147,472.08C696.147,453.983 710.839,439.29 728.936,439.29L794.515,439.29C812.612,439.29 827.304,453.983 827.304,472.08Z" style="fill:rgb(44,44,49);fill-opacity:0.6;"/>
            </g>
            <g transform="matrix(2.51553,0,0,2.55046,-466.15,536.632)">
                <path d="M23.937,8.509C24.084,7.794 23.974,7.043 23.601,6.412C23.18,5.703 22.497,5.225 21.693,5.062C21.508,5.024 21.32,5.005 21.131,5.004L21.12,5.004C19.744,5.004 18.588,5.992 18.314,7.342C18.151,8.136 17.836,8.903 17.395,9.612C17.344,9.692 17.253,9.738 17.158,9.733C17.064,9.727 16.979,9.671 16.938,9.586L14.079,3.595C13.716,2.833 13.065,2.234 12.255,1.998C10.868,1.588 9.439,2.282 8.85,3.522L5.897,9.733C5.818,9.896 5.587,9.891 5.519,9.728L5.519,9.723C5.084,8.637 4.024,7.922 2.854,7.926C2.476,7.926 2.103,7.999 1.746,8.146C0.274,8.761 -0.383,10.495 0.227,11.967C0.784,13.296 1.698,14.552 2.886,15.635C2.97,15.713 2.996,15.834 2.949,15.939L1.993,17.947C1.32,19.366 1.861,21.095 3.259,21.804C3.669,22.009 4.105,22.114 4.557,22.114C5.661,22.114 6.68,21.473 7.153,20.474L7.978,18.745C8.031,18.631 8.162,18.572 8.283,18.609C9.286,18.882 10.295,19.029 11.288,19.029C12.408,19.029 13.511,18.861 14.578,18.551C14.7,18.515 14.832,18.573 14.888,18.688L15.703,20.401C16.186,21.42 17.195,22.114 18.32,22.119C18.777,22.119 19.218,22.019 19.633,21.809C21.036,21.1 21.572,19.366 20.9,17.941L19.875,15.787C19.828,15.682 19.849,15.561 19.933,15.482C21.919,13.633 23.385,11.21 23.937,8.509ZM6.212,20.017C6.063,20.33 5.829,20.594 5.536,20.779C5.243,20.964 4.903,21.063 4.557,21.063C4.284,21.063 4.005,21 3.748,20.874C2.844,20.427 2.502,19.302 2.938,18.393L3.732,16.728C3.8,16.581 3.989,16.528 4.116,16.623C4.284,16.743 4.457,16.859 4.636,16.975C5.335,17.421 6.065,17.8 6.817,18.11C6.958,18.168 7.022,18.325 6.958,18.462L6.212,20.017L6.212,20.017ZM11.288,17.973C7.079,17.973 2.634,15.12 1.162,11.478C0.786,10.548 1.242,9.474 2.171,9.097C2.397,9.008 2.628,8.961 2.854,8.961C3.579,8.961 4.263,9.392 4.552,10.106C5.471,12.387 8.556,14.316 11.288,14.316C11.709,14.316 12.129,14.274 12.544,14.2C12.66,14.179 12.776,14.237 12.828,14.342L14.205,17.243C14.273,17.39 14.194,17.563 14.042,17.605C13.143,17.842 12.224,17.973 11.288,17.973ZM10.689,13.044L11.325,11.709C11.378,11.604 11.53,11.604 11.583,11.709L12.203,13.012C12.245,13.096 12.187,13.201 12.098,13.217C11.83,13.254 11.562,13.275 11.299,13.275C11.136,13.274 10.973,13.265 10.81,13.249C10.7,13.233 10.647,13.128 10.689,13.044ZM19.15,20.868C18.48,21.199 17.673,21.088 17.117,20.59C16.936,20.428 16.789,20.231 16.685,20.012L11.698,9.528C11.598,9.318 11.299,9.318 11.204,9.528L9.659,12.781C9.603,12.901 9.464,12.96 9.339,12.918C8.288,12.555 7.289,11.94 6.548,11.199C6.471,11.122 6.452,11.003 6.501,10.905L9.843,3.874C9.959,3.627 10.138,3.406 10.364,3.254C11.415,2.566 12.644,2.996 13.101,3.958L19.959,18.383C20.39,19.297 20.054,20.422 19.15,20.868ZM17.705,11.22C17.662,11.131 17.674,11.024 17.736,10.947C18.519,9.943 19.092,8.772 19.339,7.526C19.512,6.659 20.274,6.055 21.131,6.055C21.278,6.055 21.425,6.071 21.578,6.107C22.55,6.349 23.112,7.358 22.907,8.341C22.424,10.642 21.225,12.729 19.591,14.363C19.46,14.494 19.244,14.457 19.166,14.295L17.705,11.22Z" style="fill:rgb(172,170,171);fill-rule:nonzero;"/>
            </g>
        </g>
    </g>
</svg>
