<?xml version="1.0" encoding="UTF-8" standalone="no"?>
<!DOCTYPE svg PUBLIC "-//W3C//DTD SVG 1.1//EN" "http://www.w3.org/Graphics/SVG/1.1/DTD/svg11.dtd">
<svg width="100%" height="100%" viewBox="0 0 1920 1080" version="1.1" xmlns="http://www.w3.org/2000/svg" xmlns:xlink="http://www.w3.org/1999/xlink" xml:space="preserve" xmlns:serif="http://www.serif.com/" style="fill-rule:evenodd;clip-rule:evenodd;stroke-linecap:round;stroke-linejoin:round;stroke-miterlimit:1.5;">
    <g id="layer_4" transform="matrix(0.918031,0,0,0.918031,141.942,70.1558)">
        <g transform="matrix(0.830261,0,0,0.830261,-237.349,-181.951)">
            <path d="M827.304,472.08L827.304,537.659C827.304,555.756 812.612,570.448 794.515,570.448L728.936,570.448C710.839,570.448 696.147,555.756 696.147,537.659L696.147,472.08C696.147,453.983 710.839,439.29 728.936,439.29L794.515,439.29C812.612,439.29 827.304,453.983 827.304,472.08Z" style="fill:rgb(44,44,49);fill-opacity:0.1;"/>
        </g>
        <g transform="matrix(0.525324,0,0,0.525324,-117.339,566.763)">
            <path d="M827.304,472.08L827.304,537.659C827.304,555.756 812.612,570.448 794.515,570.448L728.936,570.448C710.839,570.448 696.147,555.756 696.147,537.659L696.147,472.08C696.147,453.983 710.839,439.29 728.936,439.29L794.515,439.29C812.612,439.29 827.304,453.983 827.304,472.08Z" style="fill:rgb(172,170,171);fill-opacity:0.1;"/>
        </g>
        <g transform="matrix(0.780812,0,0,0.780812,619.312,495.554)">
            <path d="M827.304,472.08L827.304,537.659C827.304,555.756 812.612,570.448 794.515,570.448L728.936,570.448C710.839,570.448 696.147,555.756 696.147,537.659L696.147,472.08C696.147,453.983 710.839,439.29 728.936,439.29L794.515,439.29C812.612,439.29 827.304,453.983 827.304,472.08Z" style="fill:none;stroke:rgb(87,87,90);stroke-opacity:0.3;stroke-width:2.79px;"/>
        </g>
        <g transform="matrix(0.800042,0,0,0.800042,1162.97,-172.279)">
            <path d="M827.304,472.08L827.304,537.659C827.304,555.756 812.612,570.448 794.515,570.448L728.936,570.448C710.839,570.448 696.147,555.756 696.147,537.659L696.147,472.08C696.147,453.983 710.839,439.29 728.936,439.29L794.515,439.29C812.612,439.29 827.304,453.983 827.304,472.08Z" style="fill:none;stroke:rgb(172,170,171);stroke-opacity:0.2;stroke-width:2.72px;"/>
        </g>
        <g transform="matrix(0.654559,0,0,0.645593,1463.12,-350.828)">
            <g transform="matrix(1.02223,0,0,1.03643,-1214.62,43.9769)">
                <path d="M827.304,472.08L827.304,537.659C827.304,555.756 812.612,570.448 794.515,570.448L728.936,570.448C710.839,570.448 696.147,555.756 696.147,537.659L696.147,472.08C696.147,453.983 710.839,439.29 728.936,439.29L794.515,439.29C812.612,439.29 827.304,453.983 827.304,472.08Z" style="fill:rgb(44,44,49);fill-opacity:0.6;"/>
            </g>
            <g transform="matrix(2.28624,0,0,2.31799,-463.397,539.421)">
                <path d="M12.045,0.033C11.59,0.034 11.136,0.06 10.684,0.111C11.319,0.548 11.925,1.027 12.497,1.544L12.977,1.982L12.512,2.432C12.115,2.813 11.739,3.215 11.386,3.637L11.208,3.852C11.494,3.821 11.781,3.804 12.068,3.802C16.506,3.853 20.128,7.518 20.128,11.956C20.128,16.43 16.448,20.111 11.974,20.111C10.498,20.111 9.049,19.71 7.782,18.951C7.171,19.022 6.556,19.058 5.941,19.057L5.081,19.057C5.106,20.017 5.194,20.975 5.345,21.923C7.321,23.255 9.65,23.967 12.033,23.967C18.598,23.967 23.999,18.565 23.999,12C23.999,5.439 18.605,0.039 12.045,0.033ZM8.17,0.678C7.247,0.996 6.366,1.424 5.546,1.953C6.158,2.06 6.764,2.203 7.359,2.383C7.6,1.801 7.871,1.232 8.17,0.678ZM9.423,0.75C9.046,1.392 8.713,2.06 8.428,2.748C8.974,2.939 9.51,3.159 10.033,3.408C10.168,3.232 10.312,3.062 10.463,2.899C10.697,2.613 10.935,2.34 11.179,2.082C10.627,1.596 10.04,1.15 9.423,0.75ZM4.68,2.949C4.619,3.726 4.619,4.508 4.68,5.285C5.267,5.22 5.876,5.185 6.492,5.178C6.62,4.587 6.78,4.003 6.972,3.43C6.22,3.216 5.454,3.055 4.68,2.949ZM3.62,3.5C2.902,4.211 2.278,5.011 1.762,5.88C2.379,5.697 3.005,5.548 3.639,5.436C3.597,4.792 3.59,4.145 3.62,3.5ZM8.026,3.787C7.883,4.224 7.761,4.675 7.646,5.134C8.171,4.805 8.731,4.535 9.316,4.331C8.893,4.131 8.471,3.951 8.026,3.787ZM6.3,6.216C5.78,6.223 5.261,6.259 4.745,6.324C4.809,6.847 4.902,7.362 5.017,7.878C5.373,7.272 5.804,6.714 6.3,6.216ZM3.75,6.353C2.863,6.515 1.993,6.754 1.148,7.069L1.07,7.069L1.07,7.148C1.421,8.03 1.845,8.881 2.337,9.692L2.38,9.763L2.452,9.714C3.007,9.317 3.586,8.955 4.186,8.631L4.243,8.596L4.243,8.54C4.063,7.851 3.927,7.152 3.835,6.446L3.835,6.354L3.75,6.353ZM0.644,8.095L0.581,8.295C0.226,9.381 0.031,10.513 0,11.655L0,11.864L0.143,11.712C0.641,11.198 1.17,10.715 1.727,10.265L1.784,10.222L1.741,10.158C1.359,9.558 1.016,8.933 0.716,8.288L0.644,8.095ZM4.414,9.348L4.234,9.448C3.769,9.721 3.304,10.021 2.859,10.337L2.794,10.387L2.844,10.451C3.153,10.888 3.489,11.318 3.84,11.727L3.977,11.892L3.977,11.684C4.002,10.954 4.124,10.231 4.341,9.534L4.414,9.348ZM2.2,10.853L2.128,10.903C1.481,11.434 0.875,12.014 0.315,12.637L0.257,12.695L0.323,12.752C0.946,13.299 1.612,13.795 2.314,14.235L2.386,14.285L2.429,14.205C2.748,13.638 3.099,13.091 3.482,12.565L3.482,12.515L3.439,12.465C3.013,11.975 2.616,11.461 2.249,10.925L2.2,10.853ZM4.055,12.924L3.934,13.096C3.602,13.556 3.296,14.035 3.017,14.529L2.974,14.601L3.045,14.644C3.552,14.926 4.073,15.182 4.607,15.41L4.8,15.496L4.714,15.303C4.392,14.614 4.17,13.883 4.054,13.131L4.055,12.924ZM0.079,13.404L0.079,13.604C0.229,14.753 0.548,15.874 1.025,16.93L1.103,17.116L1.175,16.922C1.412,16.237 1.694,15.569 2.02,14.922L2.077,14.859L2.013,14.816C1.394,14.426 0.801,13.997 0.237,13.532L0.079,13.404ZM2.622,15.209L2.587,15.289C2.19,16.086 1.861,16.915 1.604,17.768L1.604,17.848L1.69,17.848C2.57,18.09 3.469,18.258 4.378,18.348L4.45,18.355L4.45,18.269C4.464,17.581 4.519,16.895 4.614,16.213L4.614,16.148L4.55,16.148C3.915,15.889 3.298,15.589 2.701,15.252L2.622,15.209ZM5.166,16.378L5.166,16.492C5.083,17.098 5.033,17.708 5.015,18.32L5.015,18.398L5.946,18.398C6.233,18.398 6.57,18.412 6.892,18.398L7.101,18.398L6.935,18.269C6.297,17.746 5.744,17.127 5.295,16.435L5.166,16.378ZM1.876,18.478L1.991,18.65C2.678,19.687 3.522,20.61 4.493,21.387L4.65,21.516L4.65,21.315C4.543,20.54 4.476,19.761 4.45,18.979L4.45,18.908L4.378,18.908C3.603,18.834 2.834,18.705 2.078,18.521L1.876,18.478Z" style="fill:rgb(172,170,171);fill-rule:nonzero;"/>
            </g>
        </g>
        <g transform="matrix(0.732495,0,0,0.722462,433.232,180.833)">
            <g transform="matrix(1.02223,0,0,1.03643,-1214.62,43.9769)">
                <path d="M827.304,472.08L827.304,537.659C827.304,555.756 812.612,570.448 794.515,570.448L728.936,570.448C710.839,570.448 696.147,555.756 696.147,537.659L696.147,472.08C696.147,453.983 710.839,439.29 728.936,439.29L794.515,439.29C812.612,439.29 827.304,453.983 827.304,472.08Z" style="fill:rgb(44,44,49);fill-opacity:0.6;"/>
            </g>
            <g transform="matrix(2.28624,0,0,2.31799,-463.399,539.421)">
                <path d="M12.51,13.214C12.556,12.414 12.948,11.708 13.54,11.208C14.161,10.692 14.945,10.412 15.752,10.418C16.602,10.418 17.383,10.718 17.963,11.208C18.555,11.708 18.946,12.414 18.991,13.213C19.036,14.036 18.706,14.799 18.126,15.366C17.487,15.976 16.635,16.313 15.752,16.304C14.868,16.313 14.015,15.976 13.376,15.366C12.796,14.799 12.466,14.036 12.511,13.214M7.35,14.831C7.356,15.145 7.456,15.753 7.606,16.229C7.93,17.253 8.474,18.194 9.199,18.986C9.977,19.841 10.927,20.523 11.986,20.987C13.139,21.495 14.386,21.754 15.646,21.747C16.906,21.749 18.152,21.486 19.303,20.975C20.362,20.507 21.31,19.822 22.088,18.965C22.812,18.17 23.355,17.228 23.68,16.203C23.992,15.21 24.077,14.159 23.93,13.129C23.79,12.142 23.443,11.195 22.914,10.35C22.424,9.564 21.796,8.872 21.062,8.307L21.064,8.307L13.566,2.55L13.546,2.535C13.054,2.157 12.227,2.159 11.686,2.537C11.139,2.919 11.077,3.552 11.563,3.952L11.562,3.953L14.688,6.496L5.158,6.506L5.145,6.506C4.357,6.507 3.6,7.024 3.45,7.678C3.296,8.343 3.83,8.895 4.65,8.898L4.65,8.9L9.48,8.89L0.86,15.507L0.826,15.532C0.013,16.154 -0.249,17.19 0.263,17.845C0.783,18.512 1.888,18.513 2.71,17.849L7.414,14C7.414,14 7.345,14.52 7.351,14.831L7.35,14.831ZM19.44,16.572C18.47,17.56 17.114,18.12 15.645,18.122C14.175,18.126 12.818,17.57 11.848,16.584C11.39,16.124 11.037,15.571 10.812,14.962C10.396,13.804 10.499,12.52 11.094,11.443C11.387,10.916 11.778,10.451 12.247,10.072C13.189,9.304 14.388,8.889 15.643,8.887C16.899,8.885 18.098,9.297 19.041,10.062C19.521,10.453 19.911,10.916 20.193,11.429C20.485,11.955 20.663,12.536 20.715,13.135C20.768,13.749 20.686,14.367 20.476,14.946C20.251,15.556 19.898,16.11 19.441,16.572" style="fill:rgb(172,170,171);fill-rule:nonzero;"/>
            </g>
        </g>
        <g transform="matrix(0.536312,0,0,0.536312,528.652,44.4628)">
            <path d="M827.304,472.08L827.304,537.659C827.304,555.756 812.612,570.448 794.515,570.448L728.936,570.448C710.839,570.448 696.147,555.756 696.147,537.659L696.147,472.08C696.147,453.983 710.839,439.29 728.936,439.29L794.515,439.29C812.612,439.29 827.304,453.983 827.304,472.08Z" style="fill:rgb(172,170,171);fill-opacity:0.06;"/>
        </g>
    </g>
</svg>
