<?xml version="1.0" encoding="UTF-8" standalone="no"?>
<!DOCTYPE svg PUBLIC "-//W3C//DTD SVG 1.1//EN" "http://www.w3.org/Graphics/SVG/1.1/DTD/svg11.dtd">
<svg width="100%" height="100%" viewBox="0 0 1920 1080" version="1.1" xmlns="http://www.w3.org/2000/svg" xmlns:xlink="http://www.w3.org/1999/xlink" xml:space="preserve" xmlns:serif="http://www.serif.com/" style="fill-rule:evenodd;clip-rule:evenodd;stroke-linecap:round;stroke-linejoin:round;stroke-miterlimit:1.5;">
    <g id="layer_5" transform="matrix(0.918031,0,0,0.918031,141.942,70.1558)">
        <g transform="matrix(0.536312,0,0,0.536312,310.51,-224.546)">
            <path d="M827.304,472.08L827.304,537.659C827.304,555.756 812.612,570.448 794.515,570.448L728.936,570.448C710.839,570.448 696.147,555.756 696.147,537.659L696.147,472.08C696.147,453.983 710.839,439.29 728.936,439.29L794.515,439.29C812.612,439.29 827.304,453.983 827.304,472.08Z" style="fill:rgb(44,44,49);fill-opacity:0.25;"/>
        </g>
        <g transform="matrix(0.681913,0,0,0.681913,1134.95,502.247)">
            <path d="M827.304,472.08L827.304,537.659C827.304,555.756 812.612,570.448 794.515,570.448L728.936,570.448C710.839,570.448 696.147,555.756 696.147,537.659L696.147,472.08C696.147,453.983 710.839,439.29 728.936,439.29L794.515,439.29C812.612,439.29 827.304,453.983 827.304,472.08Z" style="fill:none;stroke:rgb(87,87,90);stroke-opacity:0.3;stroke-width:3.19px;"/>
        </g>
        <g transform="matrix(0.673671,0,0,0.673671,665.073,-76.4102)">
            <path d="M827.304,472.08L827.304,537.659C827.304,555.756 812.612,570.448 794.515,570.448L728.936,570.448C710.839,570.448 696.147,555.756 696.147,537.659L696.147,472.08C696.147,453.983 710.839,439.29 728.936,439.29L794.515,439.29C812.612,439.29 827.304,453.983 827.304,472.08Z" style="fill:none;stroke:rgb(172,170,171);stroke-opacity:0.2;stroke-width:3.23px;"/>
        </g>
        <g transform="matrix(0.536312,0,0,0.536312,-23.3493,-155.151)">
            <path d="M827.304,472.08L827.304,537.659C827.304,555.756 812.612,570.448 794.515,570.448L728.936,570.448C710.839,570.448 696.147,555.756 696.147,537.659L696.147,472.08C696.147,453.983 710.839,439.29 728.936,439.29L794.515,439.29C812.612,439.29 827.304,453.983 827.304,472.08Z" style="fill:rgb(44,44,49);fill-opacity:0.4;"/>
        </g>
    </g>
</svg>
