<?xml version="1.0" encoding="UTF-8" standalone="no"?>
<!DOCTYPE svg PUBLIC "-//W3C//DTD SVG 1.1//EN" "http://www.w3.org/Graphics/SVG/1.1/DTD/svg11.dtd">
<svg width="100%" height="100%" viewBox="0 0 1024 1024" version="1.1" xmlns="http://www.w3.org/2000/svg" xmlns:xlink="http://www.w3.org/1999/xlink" xml:space="preserve" xmlns:serif="http://www.serif.com/" style="fill-rule:evenodd;clip-rule:evenodd;stroke-linejoin:round;stroke-miterlimit:2;">
    <g transform="matrix(0.393811,0,0,-0.393811,-1422.42,3276.17)">
        <path d="M4926,8205C4917,8156 4835,8000 4769,7905C4696,7799 4620,7732 4420,7599C4324,7534 4214,7456 4175,7423C4038,7308 3957,7168 3918,6980C3892,6853 3897,6634 3929,6516C4006,6237 4215,6005 4527,5854C4634,5802 4655,5798 4585,5842C4429,5939 4307,6161 4323,6317C4336,6439 4405,6521 4634,6688C4896,6878 5040,7008 5106,7111C5145,7173 5144,7156 5106,7083C5086,7045 5039,6981 5001,6939L4931,6863L5033,6803C5089,6770 5202,6707 5284,6664C5464,6569 5535,6508 5568,6417C5622,6275 5564,6075 5431,5940C5361,5868 5367,5867 5463,5932C5681,6080 5844,6296 5901,6515C5930,6627 5930,6795 5901,6905C5840,7133 5718,7295 5435,7527C5131,7776 5039,7894 4964,8139C4934,8239 4932,8241 4926,8205Z" style="fill:white;fill-rule:nonzero;"/>
    </g>
</svg>
