<?xml version="1.0" standalone="no"?>
<!DOCTYPE svg PUBLIC "-//W3C//DTD SVG 20010904//EN"
 "http://www.w3.org/TR/2001/REC-SVG-20010904/DTD/svg10.dtd">
<svg version="1.0" xmlns="http://www.w3.org/2000/svg"
 width="700.000000pt" height="700.000000pt" viewBox="0 0 700.000000 700.000000"
 preserveAspectRatio="xMidYMid meet">
<metadata>
Created by potrace 1.14, written by Peter Selinger 2001-2017
</metadata>
<g transform="translate(0.000000,700.000000) scale(0.100000,-0.100000)"
fill="#000000" stroke="none">
<path d="M3545 6723 c-8 -38 -43 -140 -62 -183 -25 -55 -118 -241 -143 -285
-13 -22 -33 -58 -44 -80 -22 -40 -28 -49 -94 -155 -243 -386 -413 -545 -1035
-965 -358 -242 -638 -449 -760 -564 -65 -61 -193 -210 -249 -291 -43 -62 -122
-189 -124 -200 0 -3 -20 -45 -43 -95 -23 -49 -46 -99 -51 -110 -23 -54 -89
-272 -106 -350 -15 -69 -35 -200 -42 -264 -9 -100 -9 -553 1 -661 8 -93 36
-291 42 -300 2 -4 7 -20 9 -37 11 -62 85 -272 135 -383 238 -526 644 -957
1224 -1297 175 -102 511 -262 524 -249 2 2 -29 25 -69 51 -295 193 -495 433
-646 775 -29 66 -70 204 -86 290 -15 80 -18 233 -5 290 4 19 10 46 13 60 15
75 55 164 117 259 40 62 226 259 305 323 90 74 186 150 259 206 16 12 148 110
320 237 575 425 906 733 1098 1019 33 48 61 85 64 83 9 -10 -73 -176 -135
-271 -66 -100 -186 -255 -263 -336 -117 -125 -139 -150 -139 -160 0 -6 10 -15
23 -20 12 -6 37 -19 55 -30 149 -91 486 -283 652 -372 242 -131 390 -212 425
-233 22 -14 47 -28 55 -32 20 -9 165 -108 215 -147 180 -140 288 -316 322
-524 14 -84 8 -291 -10 -380 -62 -293 -195 -533 -435 -784 -127 -133 -117
-141 43 -35 148 97 161 107 300 219 462 371 811 877 948 1373 14 50 28 110 32
135 4 25 9 54 12 65 18 87 24 486 10 630 -17 172 -90 434 -169 605 -77 169
-212 395 -300 504 -131 163 -176 214 -314 350 -115 115 -201 195 -289 271 -39
33 -72 62 -75 65 -3 3 -72 61 -155 130 -335 279 -411 347 -590 525 -157 157
-199 205 -298 336 -104 139 -230 366 -282 510 -36 100 -67 185 -69 194 -2 6
-6 17 -9 25 -3 8 -24 74 -47 147 -22 73 -45 135 -50 138 -5 3 -12 -7 -15 -22z"/>
</g>
</svg>
